<?xml version="1.0" encoding="utf-8"?>
<!-- Generator: Adobe Illustrator 23.0.3, SVG Export Plug-In . SVG Version: 6.00 Build 0)  -->
<svg version="1.1" id="Laag_2" xmlns="http://www.w3.org/2000/svg" xmlns:xlink="http://www.w3.org/1999/xlink" x="0px" y="0px"
	 viewBox="0 0 595.28 841.89" style="enable-background:new 0 0 595.28 841.89;" xml:space="preserve">
<style type="text/css">
	.st0{stroke:#000000;stroke-width:0.9178;stroke-miterlimit:10;}
	.st1{fill:none;stroke:#000000;stroke-width:0.8185;stroke-miterlimit:10;}
	.st2{fill:none;stroke:#000000;stroke-width:0.8918;stroke-miterlimit:10;}
	.st3{stroke:#000000;stroke-width:0.8918;stroke-miterlimit:10;}
</style>
<path class="st0" d="M251.67,119.12c-70.37,0-127.41,57.04-127.41,127.41s57.04,127.41,127.41,127.41s127.41-57.04,127.41-127.41
	S322.04,119.12,251.67,119.12z M251.67,360.15c-62.75,0-113.62-50.87-113.62-113.62s50.87-113.62,113.62-113.62
	s113.62,50.87,113.62,113.62S314.42,360.15,251.67,360.15z"/>
<ellipse transform="matrix(0.7071 -0.7071 0.7071 0.7071 -100.6114 250.1665)" class="st1" cx="251.67" cy="246.53" rx="113.62" ry="113.62"/>
<g>
	<path d="M458.3,427.8c-7.7-5.37-77.38-68.24-82.39-73.79c-5.02-5.55-7.7-10.21-8.06-11.64c-0.36-1.43,1.79-17.55-12.72-15.58
		l-2.77-2.17l-24.26,23.87l2.49,2.3c0,0-6.63,13.79,17.02,13.61c18.63,6.27,82.57,87.94,85.08,91.17s10.75,12.18,23.46,0
		C468.87,443.38,466,433.17,458.3,427.8z M448.36,445.71c-8.33,3.01-12.96-4.16-12.96-4.16s-3.7-4.86-1.39-12.26
		c2.19-2.65,11.34,2.08,12.96,3.24C448.59,433.68,453.91,441.55,448.36,445.71z"/>
	<path d="M448.36,445.71"/>
	<path d="M434.01,429.28"/>
</g>
<path class="st2" d="M283.89,240.81c0,15.83-12.83,28.66-28.66,28.66c-15.84,0-28.67-12.83-28.67-28.66
	c0-15.84,12.83-28.67,28.67-28.67C271.06,212.14,283.89,224.97,283.89,240.81z"/>
<path class="st3" d="M319.82,254.77c-10.68-8.25-7.33-15.27-7.33-18.63c0-3.35,0.71-32.97-17.7-37.85
	c-23.81,0-29.31-16.18-31.44-16.79c-2.14-0.61-28.4-9.77-33.58,10.99c-5.19,20.76-3.21,12.36-20.76,22.29
	c-24.12,17.4-10.69,31.44-10.69,31.44s9.47,5.8-1.52,20.45c-3.97,32.36,33.27,34.19,41.31,32.61c8.04-1.57,14.25-4.83,32.26,6.16
	c26.56,10.69,34.8-4.88,41.51-7.63C318.6,295.06,327.15,266.06,319.82,254.77z M255.23,269.47c-15.84,0-28.67-12.83-28.67-28.66
	c0-15.84,12.83-28.67,28.67-28.67c15.83,0,28.66,12.83,28.66,28.67C283.89,256.64,271.06,269.47,255.23,269.47z"/>
<path class="st2" d="M283.89,240.81c0,15.83-12.83,28.66-28.66,28.66c-15.84,0-28.67-12.83-28.67-28.66
	c0-15.84,12.83-28.67,28.67-28.67C271.06,212.14,283.89,224.97,283.89,240.81z"/>
</svg>
