<?xml version="1.0" encoding="utf-8"?>
<!-- Generator: Adobe Illustrator 23.0.3, SVG Export Plug-In . SVG Version: 6.00 Build 0)  -->
<svg version="1.1" xmlns="http://www.w3.org/2000/svg" xmlns:xlink="http://www.w3.org/1999/xlink" x="0px" y="0px"
	 viewBox="0 0 300 157" style="enable-background:new 0 0 300 157;" xml:space="preserve">
<style type="text/css">
	.st0{stroke:#000000;stroke-width:0.918;stroke-miterlimit:10;}
	.st1{fill:none;stroke:#000000;stroke-width:0.818;stroke-miterlimit:10;}
	.st2{fill:none;stroke:#000000;stroke-width:0.892;stroke-miterlimit:10;}
	.st3{stroke:#000000;stroke-width:0.892;stroke-miterlimit:10;}
</style>
<g id="Laag_1">
	<g id="Group_9" transform="matrix(0.951, -0.309, 0.309, 0.951, -123.647, -37.683)">
		<path id="Path_7" class="st0" d="M153.59,124.28c-18.73,0-33.91,15.18-33.91,33.91s15.18,33.91,33.91,33.91
			s33.91-15.18,33.91-33.91C187.49,139.46,172.31,124.28,153.59,124.28C153.59,124.28,153.59,124.28,153.59,124.28z M153.59,188.43
			c-16.7,0-30.24-13.53-30.24-30.23s13.53-30.24,30.23-30.24s30.24,13.53,30.24,30.23c0,0,0,0,0,0
			C183.82,174.89,170.28,188.42,153.59,188.43L153.59,188.43z"/>
		<circle id="Ellipse_1" class="st1" cx="153.59" cy="158.19" r="30.24"/>
		<g id="Group_8" transform="translate(154.094 149.39)">
			<path id="Path_8" d="M54.48,57.04c-2.05-1.43-20.59-18.16-21.93-19.64c-0.89-0.9-1.62-1.95-2.14-3.1
				c-0.1-0.38,0.48-4.67-3.38-4.15l-0.74-0.58l-6.45,6.35l0.66,0.61c0,0-1.76,3.67,4.53,3.62c4.96,1.67,21.97,23.4,22.64,24.26
				c0.67,0.86,2.86,3.24,6.24,0C57.29,61.18,56.53,58.47,54.48,57.04z M51.83,61.81c-1.27,0.47-2.69,0.01-3.45-1.11
				c-0.62-0.97-0.76-2.18-0.37-3.26c0.58-0.7,3.02,0.55,3.45,0.86S53.31,60.7,51.83,61.81L51.83,61.81z"/>
			<path id="Path_9" d="M51.83,61.81"/>
			<path id="Path_10" d="M48.02,57.43"/>
		</g>
		<path id="Path_11" class="st2" d="M162.16,156.67c0,4.21-3.42,7.63-7.63,7.63c-4.21,0-7.63-3.42-7.63-7.63
			c0-4.21,3.42-7.63,7.63-7.63C158.74,149.04,162.16,152.45,162.16,156.67C162.16,156.67,162.16,156.67,162.16,156.67z"/>
		<path id="Path_12" class="st3" d="M171.72,160.38c-2.84-2.2-1.95-4.06-1.95-4.96s0.19-8.77-4.71-10.07c-6.34,0-7.8-4.31-8.37-4.47
			s-7.56-2.6-8.94,2.93s-0.85,3.29-5.52,5.93c-6.42,4.63-2.85,8.37-2.85,8.37s2.52,1.54-0.4,5.44c-1.06,8.61,8.85,9.1,10.99,8.68
			s3.79-1.29,8.59,1.64c7.07,2.85,9.26-1.3,11.05-2.03S173.67,163.39,171.72,160.38z M154.53,164.29c-4.21,0-7.63-3.41-7.63-7.63
			s3.41-7.63,7.63-7.63s7.63,3.41,7.63,7.63c0,0,0,0,0,0C162.16,160.88,158.74,164.29,154.53,164.29L154.53,164.29z"/>
		<path id="Path_13" class="st2" d="M162.16,156.67c0,4.21-3.42,7.63-7.63,7.63c-4.21,0-7.63-3.42-7.63-7.63
			c0-4.21,3.42-7.63,7.63-7.63C158.74,149.04,162.16,152.45,162.16,156.67C162.16,156.67,162.16,156.67,162.16,156.67z"/>
	</g>
</g>
<g id="Laag_2">
</g>
</svg>
